<svg width="40" height="40" viewBox="0 0 40 40" fill="none" xmlns="http://www.w3.org/2000/svg">
<path d="M40 20.0005C40 26.6037 34.6667 32.0005 28 32.0005C21.3968 32.0005 16 26.6037 16 20.0005C16 13.3973 21.3333 8.00049 27.9365 8.00049C34.6667 8.00049 40 13.3973 40 20.0005Z" fill="#FFB600"/>
<path d="M28 8.00049C34.6032 8.00049 40 13.3973 40 20.0005C40 26.6037 34.6667 32.0005 28 32.0005C21.3968 32.0005 16 26.6037 16 20.0005" fill="#F7981D"/>
<path d="M28 8.00049C34.6032 8.00049 40 13.3973 40 20.0005C40 26.6037 34.6667 32.0005 28 32.0005" fill="#FF8500"/>
<path d="M11.873 8.00049C5.33333 8.06398 0 13.3973 0 20.0005C0 26.6037 5.33333 32.0005 12 32.0005C15.1111 32.0005 17.9048 30.7941 20.0635 28.8894C20.5079 28.5084 20.8889 28.064 21.2698 27.6195H18.7937C18.4762 27.2386 18.1587 26.7941 17.9048 26.4132H22.1587C22.4127 26.0322 22.6667 25.5878 22.8571 25.1433H17.2064C17.0159 24.7624 16.8254 24.3179 16.6984 23.8735H23.3016C23.6825 22.6672 23.9365 21.3973 23.9365 20.064C23.9365 19.1751 23.8095 18.3497 23.6825 17.5243H16.3175C16.381 17.0799 16.5079 16.6989 16.6349 16.2545H23.2381C23.1111 15.81 22.9206 15.3656 22.7302 14.9846H17.1429C17.3333 14.5402 17.5873 14.1592 17.8413 13.7148H22.0952C21.8413 13.2703 21.5238 12.8259 21.1429 12.4449H18.7937C19.1746 12.0005 19.5556 11.6195 20 11.2386C17.9048 9.27033 15.0476 8.12747 11.9365 8.12747C11.9365 8.00049 11.9365 8.00049 11.873 8.00049Z" fill="#FF5050"/>
<path d="M0 20C0 26.6031 5.33333 32 12 32C15.1111 32 17.9048 30.7936 20.0635 28.8889C20.5079 28.5079 20.8889 28.0635 21.2698 27.619H18.7937C18.4762 27.2381 18.1587 26.7936 17.9048 26.4127H22.1587C22.4127 26.0317 22.6667 25.5873 22.8571 25.1428H17.2064C17.0159 24.7619 16.8254 24.3174 16.6984 23.873H23.3016C23.6825 22.6666 23.9365 21.3968 23.9365 20.0635C23.9365 19.1746 23.8095 18.3492 23.6825 17.5238H16.3175C16.381 17.0793 16.5079 16.6984 16.6349 16.2539H23.2381C23.1111 15.8095 22.9206 15.365 22.7302 14.9841H17.1429C17.3333 14.5397 17.5873 14.1587 17.8413 13.7143H22.0952C21.8413 13.2698 21.5238 12.8254 21.1429 12.4444H18.7937C19.1746 12 19.5556 11.619 20 11.2381C17.9048 9.26981 15.0476 8.12695 11.9365 8.12695H11.873" fill="#E52836"/>
<path d="M12 32C15.1111 32 17.9048 30.7936 20.0635 28.8889C20.508 28.5079 20.8889 28.0635 21.2699 27.619H18.7937C18.4762 27.2381 18.1588 26.7936 17.9048 26.4127H22.1588C22.4127 26.0317 22.6667 25.5873 22.8572 25.1428H17.2064C17.0159 24.7619 16.8254 24.3174 16.6984 23.873H23.3016C23.6826 22.6666 23.9365 21.3968 23.9365 20.0635C23.9365 19.1746 23.8096 18.3492 23.6826 17.5238H16.3175C16.381 17.0793 16.508 16.6984 16.635 16.2539H23.2381C23.1111 15.8095 22.9207 15.365 22.7302 14.9841H17.1429C17.3334 14.5397 17.5873 14.1587 17.8413 13.7143H22.0953C21.8413 13.2698 21.5238 12.8254 21.1429 12.4444H18.7937C19.1746 12 19.5556 11.619 20 11.2381C17.9048 9.26981 15.0476 8.12695 11.9365 8.12695H11.873" fill="#CB2026"/>
<path d="M16.2534 23.0478L16.4439 21.9684C16.3804 21.9684 16.2534 22.0319 16.1264 22.0319C15.6819 22.0319 15.6185 21.7779 15.682 21.6509L16.0629 19.4287H16.7613L16.9518 18.2224H16.3169L16.4439 17.4604H15.174C15.174 17.4604 14.4121 21.6509 14.4121 22.1589C14.4121 22.9208 14.8566 23.2382 15.428 23.2382C15.8089 23.2382 16.1264 23.1112 16.2534 23.0478Z" fill="white"/>
<path d="M16.6982 21.0161C16.6982 22.7938 17.9046 23.2383 18.9205 23.2383C19.8728 23.2383 20.2538 23.0478 20.2538 23.0478L20.5078 21.8415C20.5078 21.8415 19.8094 22.1589 19.1744 22.1589C17.7776 22.1589 18.0316 21.143 18.0316 21.143H20.6347C20.6347 21.143 20.8252 20.3176 20.8252 20.0002C20.8252 19.1748 20.3808 18.1589 18.984 18.1589C17.6506 18.0319 16.6982 19.4288 16.6982 21.0161ZM18.9205 19.1748C19.6189 19.1748 19.4919 20.0002 19.4919 20.0637H18.0951C18.0951 20.0002 18.2221 19.1748 18.9205 19.1748Z" fill="white"/>
<path d="M26.9843 23.0479L27.2382 21.651C27.2382 21.651 26.6033 21.9685 26.1589 21.9685C25.27 21.9685 24.889 21.2701 24.889 20.5082C24.889 18.9844 25.6509 18.159 26.5398 18.159C27.1747 18.159 27.6827 18.5399 27.6827 18.5399L27.8731 17.2066C27.8731 17.2066 27.1112 16.8892 26.4128 16.8892C24.9525 16.8892 23.4922 18.159 23.4922 20.5717C23.4922 22.159 24.2541 23.2383 25.7779 23.2383C26.2858 23.2383 26.9843 23.0479 26.9843 23.0479Z" fill="white"/>
<path d="M9.26914 18.0322C8.38025 18.0322 7.74533 18.2862 7.74533 18.2862L7.55486 19.3656C7.55486 19.3656 8.12628 19.1116 8.95168 19.1116C9.39612 19.1116 9.77707 19.1751 9.77707 19.556C9.77707 19.81 9.71358 19.8735 9.71358 19.8735C9.71358 19.8735 9.33263 19.8735 9.14215 19.8735C8.06279 19.8735 6.85645 20.318 6.85645 21.7783C6.85645 22.9211 7.61835 23.1751 8.06279 23.1751C8.95168 23.1751 9.33263 22.6037 9.39612 22.6037L9.33263 23.1116H10.4755L10.9834 19.6195C10.9834 18.0957 9.71358 18.0322 9.26914 18.0322ZM9.52311 20.8894C9.52311 21.0799 9.39612 22.0957 8.63422 22.0957C8.25327 22.0957 8.12628 21.7783 8.12628 21.5878C8.12628 21.2703 8.31676 20.8259 9.26914 20.8259C9.45961 20.8894 9.52311 20.8894 9.52311 20.8894Z" fill="white"/>
<path d="M12.1898 23.1746C12.5073 23.1746 14.0946 23.2381 14.0946 21.5238C14.0946 19.9365 12.5708 20.254 12.5708 19.6191C12.5708 19.3016 12.8247 19.1746 13.2692 19.1746C13.4597 19.1746 14.1581 19.2381 14.1581 19.2381L14.3485 18.0952C14.3485 18.0952 13.9041 17.9683 13.1422 17.9683C12.1898 17.9683 11.2374 18.3492 11.2374 19.6191C11.2374 21.0794 12.8247 20.9524 12.8247 21.5238C12.8247 21.9048 12.3803 21.9683 12.0628 21.9683C11.4914 21.9683 10.92 21.7778 10.92 21.7778L10.7295 22.9206C10.793 23.0476 11.1104 23.1746 12.1898 23.1746Z" fill="white"/>
<path d="M37.5233 17.0161L37.2694 18.7304C37.2694 18.7304 36.7614 18.0955 36.063 18.0955C34.9202 18.0955 33.9043 19.4923 33.9043 21.1431C33.9043 22.159 34.4122 23.2383 35.4916 23.2383C36.2535 23.2383 36.6979 22.7304 36.6979 22.7304L36.6345 23.1748H37.9043L38.8567 17.0796L37.5233 17.0161ZM36.9519 20.3812C36.9519 21.0796 36.6344 21.9685 35.936 21.9685C35.4916 21.9685 35.2376 21.5875 35.2376 20.9526C35.2376 19.9367 35.6821 19.3018 36.2535 19.3018C36.6979 19.3018 36.9519 19.6193 36.9519 20.3812Z" fill="white"/>
<path d="M2.34893 23.1114L3.11083 18.5399L3.23782 23.1114H4.1267L5.7775 18.5399L5.07909 23.1114H6.41242L7.42829 17.0161H5.33305L4.06321 20.7621L3.99972 17.0161H2.15845L1.14258 23.1114H2.34893Z" fill="white"/>
<path d="M22.0316 23.1116C22.4125 21.0163 22.476 19.302 23.3649 19.6195C23.4919 18.7941 23.6824 18.4766 23.8094 18.1592C23.8094 18.1592 23.7459 18.1592 23.5554 18.1592C22.984 18.1592 22.5395 18.9211 22.5395 18.9211L22.6665 18.2227H21.4602L20.6348 23.1751H22.0316V23.1116Z" fill="white"/>
<path d="M29.9049 18.0322C29.016 18.0322 28.3811 18.2862 28.3811 18.2862L28.1906 19.3656C28.1906 19.3656 28.762 19.1116 29.5874 19.1116C30.0319 19.1116 30.4128 19.1751 30.4128 19.556C30.4128 19.81 30.3493 19.8735 30.3493 19.8735C30.3493 19.8735 29.9684 19.8735 29.7779 19.8735C28.6985 19.8735 27.4922 20.318 27.4922 21.7783C27.4922 22.9211 28.2541 23.1751 28.6985 23.1751C29.5874 23.1751 29.9684 22.6037 30.0319 22.6037L29.9684 23.1116H31.1112L31.6192 19.6195C31.6827 18.0957 30.3493 18.0322 29.9049 18.0322ZM30.2223 20.8894C30.2223 21.0799 30.0954 22.0957 29.3335 22.0957C28.9525 22.0957 28.8255 21.7783 28.8255 21.5878C28.8255 21.2703 29.016 20.8259 29.9684 20.8259C30.1589 20.8894 30.1589 20.8894 30.2223 20.8894Z" fill="white"/>
<path d="M32.6986 23.1116C33.0795 21.0163 33.143 19.302 34.0319 19.6195C34.1589 18.7941 34.3494 18.4766 34.4764 18.1592C34.4764 18.1592 34.4129 18.1592 34.2224 18.1592C33.651 18.1592 33.2065 18.9211 33.2065 18.9211L33.3335 18.2227H32.1272L31.3018 23.1751H32.6986V23.1116Z" fill="white"/>
<path d="M14.2852 22.1589C14.2852 22.9208 14.7296 23.2382 15.301 23.2382C15.7455 23.2382 16.1264 23.1112 16.2534 23.0478L16.4439 21.9684C16.3804 21.9684 16.2534 22.0319 16.1264 22.0319C15.682 22.0319 15.6185 21.7779 15.682 21.6509L16.0629 19.4287H16.7613L16.9518 18.2224H16.3169L16.4439 17.4604" fill="#DCE5E5"/>
<path d="M17.333 21.0161C17.333 22.7938 17.9044 23.2383 18.9203 23.2383C19.8727 23.2383 20.2536 23.0478 20.2536 23.0478L20.5076 21.8415C20.5076 21.8415 19.8092 22.1589 19.1743 22.1589C17.7775 22.1589 18.0314 21.143 18.0314 21.143H20.6346C20.6346 21.143 20.8251 20.3176 20.8251 20.0002C20.8251 19.1748 20.3806 18.1589 18.9838 18.1589C17.6505 18.0319 17.333 19.4288 17.333 21.0161ZM18.9203 19.1748C19.6187 19.1748 19.7457 20.0002 19.7457 20.0637H18.0949C18.0949 20.0002 18.2219 19.1748 18.9203 19.1748Z" fill="#DCE5E5"/>
<path d="M26.9841 23.0479L27.2381 21.651C27.2381 21.651 26.6031 21.9685 26.1587 21.9685C25.2698 21.9685 24.8889 21.2701 24.8889 20.5082C24.8889 18.9844 25.6508 18.159 26.5397 18.159C27.1746 18.159 27.6825 18.5399 27.6825 18.5399L27.873 17.2066C27.873 17.2066 27.1111 16.8892 26.4127 16.8892C24.9523 16.8892 24.127 18.159 24.127 20.5717C24.127 22.159 24.2539 23.2383 25.7777 23.2383C26.2857 23.2383 26.9841 23.0479 26.9841 23.0479Z" fill="#DCE5E5"/>
<path d="M7.55486 19.429C7.55486 19.429 8.12628 19.1751 8.95168 19.1751C9.39612 19.1751 9.77707 19.2385 9.77707 19.6195C9.77707 19.8735 9.71358 19.937 9.71358 19.937C9.71358 19.937 9.33263 19.937 9.14215 19.937C8.06279 19.937 6.85645 20.3814 6.85645 21.8417C6.85645 22.9846 7.61835 23.2385 8.06279 23.2385C8.95168 23.2385 9.33263 22.6671 9.39612 22.6671L9.33263 23.175H10.4755L10.9834 19.683C10.9834 18.2227 9.71358 18.1592 9.20565 18.1592L7.55486 19.429ZM10.158 20.8893C10.158 21.0798 9.39612 22.0957 8.63422 22.0957C8.25327 22.0957 8.12628 21.7782 8.12628 21.5877C8.12628 21.2703 8.31676 20.8258 9.26914 20.8258C9.45961 20.8893 10.158 20.8893 10.158 20.8893Z" fill="#DCE5E5"/>
<path d="M10.793 23.0476C10.793 23.0476 11.1739 23.1746 12.2533 23.1746C12.5707 23.1746 14.158 23.2381 14.158 21.5238C14.158 19.9365 12.6342 20.254 12.6342 19.6191C12.6342 19.3016 12.8882 19.1746 13.3326 19.1746C13.5231 19.1746 14.2215 19.2381 14.2215 19.2381L14.412 18.0952C14.412 18.0952 13.9676 17.9683 13.2057 17.9683C12.2533 17.9683 11.9358 18.3492 11.9358 19.6191C11.9358 21.0794 12.8882 20.9524 12.8882 21.5238C12.8882 21.9048 12.4438 21.9683 12.1263 21.9683" fill="#DCE5E5"/>
<path d="M37.2699 18.7304C37.2699 18.7304 36.762 18.0955 36.0636 18.0955C34.9207 18.0955 34.5398 19.4923 34.5398 21.1431C34.5398 22.1589 34.4128 23.2383 35.4921 23.2383C36.2541 23.2383 36.6985 22.7304 36.6985 22.7304L36.635 23.1748H37.9048L38.8572 17.0796L37.2699 18.7304ZM37.2064 20.3812C37.2064 21.0796 36.635 21.9685 35.9366 21.9685C35.4921 21.9685 35.2382 21.5875 35.2382 20.9526C35.2382 19.9367 35.6826 19.3018 36.2541 19.3018C36.6985 19.3018 37.2064 19.6193 37.2064 20.3812Z" fill="#DCE5E5"/>
<path d="M2.34893 23.1114L3.11083 18.5399L3.23782 23.1114H4.1267L5.7775 18.5399L5.07909 23.1114H6.41242L7.42829 17.0161H5.84099L4.06321 20.7621L3.99972 17.0161H3.30131L1.14258 23.1114H2.34893Z" fill="#DCE5E5"/>
<path d="M20.6982 23.1116H22.0316C22.4125 21.0163 22.476 19.302 23.3649 19.6195C23.4919 18.7941 23.6824 18.4766 23.8094 18.1592C23.8094 18.1592 23.7459 18.1592 23.5554 18.1592C22.984 18.1592 22.5395 18.9211 22.5395 18.9211L22.6665 18.2227" fill="#DCE5E5"/>
<path d="M28.1906 19.429C28.1906 19.429 28.762 19.1751 29.5874 19.1751C30.0319 19.1751 30.4128 19.2385 30.4128 19.6195C30.4128 19.8735 30.3493 19.937 30.3493 19.937C30.3493 19.937 29.9684 19.937 29.7779 19.937C28.6985 19.937 27.4922 20.3814 27.4922 21.8417C27.4922 22.9846 28.2541 23.2385 28.6985 23.2385C29.5874 23.2385 29.9684 22.6671 30.0319 22.6671L29.9684 23.175H31.1112L31.6192 19.683C31.6192 18.2227 30.3493 18.1592 29.8414 18.1592L28.1906 19.429ZM30.7938 20.8893C30.7938 21.0798 30.0319 22.0957 29.27 22.0957C28.889 22.0957 28.762 21.7782 28.762 21.5877C28.762 21.2703 28.9525 20.8258 29.9049 20.8258C30.1589 20.8893 30.7938 20.8893 30.7938 20.8893Z" fill="#DCE5E5"/>
<path d="M31.3643 23.1116H32.6976C33.0785 21.0163 33.142 19.302 34.0309 19.6195C34.1579 18.7941 34.3484 18.4766 34.4754 18.1592C34.4754 18.1592 34.4119 18.1592 34.2214 18.1592C33.65 18.1592 33.2055 18.9211 33.2055 18.9211L33.3325 18.2227" fill="#DCE5E5"/>
</svg>
