<svg width="60" height="60" viewBox="0 0 60 60" fill="none" xmlns="http://www.w3.org/2000/svg">
<path d="M24.5252 20.6118L21.514 39.3507H26.3271L29.3365 20.6118H24.5252ZM39.0434 28.245C37.3614 27.4144 36.3303 26.8538 36.3303 26.0043C36.3509 25.2319 37.2023 24.4405 39.1035 24.4405C40.6672 24.4012 41.8165 24.7687 42.6885 25.1344L43.1253 25.3293L43.7796 21.4087C42.8289 21.0412 41.3215 20.6363 39.4596 20.6363C34.7065 20.6363 31.3597 23.1075 31.3389 26.642C31.2996 29.2502 33.7351 30.6975 35.5577 31.5657C37.4196 32.4564 38.0534 33.0338 38.0534 33.8252C38.0329 35.0401 36.5479 35.6007 35.1623 35.6007C33.2423 35.6007 32.211 35.312 30.6455 34.635L30.0117 34.3463L29.3386 38.4207C30.4692 38.9233 32.5485 39.3657 34.7067 39.3883C39.758 39.3883 43.0449 36.9545 43.0862 33.1877C43.1026 31.1213 41.8184 29.5387 39.0434 28.245ZM56.119 20.6698H52.3952C51.2477 20.6698 50.3757 20.9999 49.8789 22.1774L42.7294 39.3507H47.7807L49.1719 35.6326H54.8232L55.545 39.3657H60.0001L56.119 20.6698ZM50.5727 31.8804C50.6702 31.8898 52.5116 25.8109 52.5116 25.8109L53.9778 31.8804C53.9778 31.8804 51.5234 31.8804 50.5727 31.8804ZM17.4921 20.6118L12.7765 33.3431L12.2628 30.8324C11.3908 27.9355 8.6572 24.7875 5.60645 23.2237L9.92459 39.3319H15.0172L22.5848 20.6139H17.4921V20.6118Z" fill="#64AEF7"/>
<path d="M10.6763 23.0278C10.3088 21.599 9.13684 20.6353 7.54514 20.6147H0.0769115L0 20.9615C5.82574 22.3977 10.7156 26.817 12.3019 30.9739L10.6763 23.0278Z" fill="#EFC75E"/>
</svg>
